<svg version="1.1" id="Layer_1" xmlns="http://www.w3.org/2000/svg" xmlns:xlink="http://www.w3.org/1999/xlink" x="0px" y="0px"
	 width="100%" viewBox="0 0 475 304" enable-background="new 0 0 475 304" xml:space="preserve">
<path fill="#ED1B2E" opacity="1.000000" stroke="none" 
	d="
M476.000000,4.666667 
	C475.356964,5.355382 474.286652,5.582181 474.135193,6.085493 
	C471.970093,13.279952 469.929108,20.511759 467.782257,27.999378 
	C452.603668,27.999378 437.667664,27.999376 422.731659,27.999378 
	C414.090210,27.999380 405.439270,28.243364 396.810822,27.908455 
	C391.582764,27.705532 389.210358,29.807137 388.922150,34.835350 
	C388.878204,35.602127 388.351624,36.341240 388.398682,37.697212 
	C390.383698,38.532967 392.017792,38.962574 393.652893,38.966263 
	C413.982788,39.012165 434.312897,39.017609 454.642700,38.958847 
	C456.435730,38.953663 458.227264,38.424767 460.019470,38.139107 
	C464.020599,38.366158 463.347046,41.235500 462.610626,43.454220 
	C460.374603,50.191017 457.821014,56.822426 455.207611,63.998772 
	C446.332520,63.998772 437.031311,63.998768 427.730133,63.998768 
	C413.569366,63.998768 399.408630,63.998135 385.247864,63.999065 
	C378.863495,63.999485 376.350708,66.701172 376.334381,74.053535 
	C401.093506,74.053535 425.856140,74.053535 451.752808,74.053535 
	C449.863708,80.182022 447.915527,85.500671 446.614716,90.973198 
	C444.950562,97.974350 440.217316,98.190437 434.291168,98.114891 
	C411.813293,97.828308 389.329590,97.999496 366.821716,97.999496 
	C365.388611,102.984077 364.004242,107.799034 362.509247,112.998787 
	C346.303802,112.998787 330.006470,112.991463 313.709137,113.006226 
	C311.087372,113.008598 308.278137,112.261917 306.974091,115.934067 
	C306.610657,116.957367 304.414337,117.893303 303.047760,117.909134 
	C290.237213,118.057556 277.424225,117.997192 263.678284,117.997192 
	C264.699615,115.123268 265.523468,112.804939 266.520874,109.998314 
	C277.170502,109.998314 287.975800,109.999054 298.781097,109.998062 
	C306.582336,109.997345 306.869080,110.034576 307.862823,102.584984 
	C308.515991,97.688614 310.532166,95.837883 315.543732,95.910919 
	C331.841919,96.148422 348.145721,95.999794 364.263245,95.999794 
	C366.594086,89.482841 368.786285,83.353561 371.058350,77.000938 
	C355.326752,77.000938 339.673798,76.854614 324.030334,77.172722 
	C321.901520,77.216011 319.819885,79.581604 318.237732,81.740028 
	C304.630890,81.740028 291.024048,81.740028 277.453979,81.740028 
	C276.479126,74.081291 276.536896,74.006439 283.501892,74.003860 
	C293.331116,74.000221 303.165161,73.821564 312.987488,74.081833 
	C317.675568,74.206047 319.561523,72.105934 320.050354,67.813629 
	C320.288971,65.718460 320.922974,63.668327 321.509766,60.998318 
	C326.379578,60.998318 331.502869,60.998341 336.626190,60.998314 
	C348.621185,60.998257 360.621033,60.806961 372.608215,61.112701 
	C376.282776,61.206421 377.987579,59.315449 378.840302,56.654926 
	C380.426971,51.704315 381.440674,46.570068 382.820099,40.998508 
	C371.268341,40.998508 359.826752,40.998505 348.385162,40.998508 
	C344.886627,40.998508 341.380524,41.140629 337.891815,40.955223 
	C334.901337,40.796291 332.311462,40.900383 330.677643,44.036945 
	C330.198059,44.957676 328.717957,45.898563 327.687317,45.908752 
	C314.888733,46.035244 302.088470,45.991428 288.309174,45.991428 
	C289.439148,42.875805 290.316833,40.455948 291.974457,38.248852 
	C298.554504,38.641026 304.356262,39.003845 310.154175,38.950253 
	C316.435730,38.892181 322.713684,38.445950 328.993225,38.168999 
	C330.328583,35.255886 332.296844,32.454353 332.835205,29.400717 
	C333.472870,25.783987 335.015472,24.908556 338.393219,24.941748 
	C352.890778,25.084211 367.390533,25.003742 381.889496,25.002565 
	C389.506775,25.001947 390.451202,24.127039 392.031555,16.653015 
	C392.845367,12.804196 393.597015,8.821846 395.281189,5.336909 
	C395.951385,3.950105 399.062500,3.109751 401.068695,3.097994 
	C425.732697,2.953461 450.397858,3.008763 475.531372,3.006209 
	C476.000000,3.444444 476.000000,3.888889 476.000000,4.666667 
z"/>
<path fill="#00548E" opacity="1.000000" stroke="none" 
	d="
M433.134796,242.936035 
	C433.134796,241.481079 433.134796,240.026123 433.134796,238.071793 
	C437.450134,238.071793 441.387665,238.071793 446.262970,238.071793 
	C445.339417,235.370636 444.699463,233.395721 443.990845,231.445755 
	C441.839508,225.525757 439.836578,219.540436 437.359406,213.759018 
	C436.805542,212.466370 434.573059,211.167084 433.077118,211.123718 
	C424.426453,210.872849 415.763550,211.072067 407.108429,210.916168 
	C405.774414,210.892120 404.459229,209.820038 403.135345,209.232635 
	C404.469330,208.490112 405.791107,207.130798 407.139191,207.104172 
	C416.603607,206.917206 426.073486,207.005051 436.324646,207.005051 
	C432.220490,195.790070 428.097992,185.331345 424.611816,174.664642 
	C422.822449,169.189758 421.405151,163.363113 421.259155,157.658569 
	C421.153992,153.550308 422.868256,149.076828 424.884735,145.372559 
	C425.837738,143.621918 429.401703,143.292603 432.080719,142.197495 
	C437.434784,157.774292 442.471680,172.261826 447.390747,186.789246 
	C451.767059,199.713791 456.027100,212.677826 460.305634,225.635269 
	C461.307373,228.669067 461.846863,231.909607 463.243866,234.736343 
	C463.958374,236.182190 465.975159,237.483505 467.625153,237.849152 
	C470.006989,238.376968 472.590454,237.994797 475.543945,238.000458 
	C476.000000,239.388885 476.000000,240.777786 475.531342,242.584839 
	C461.086731,242.980682 447.110748,242.958359 433.134796,242.936035 
z"/>
<path fill="#006280" opacity="1.000000" stroke="none" 
	d="
M433.333740,243.314667 
	C447.110748,242.958359 461.086731,242.980682 475.531342,243.001495 
	C476.000000,243.000000 476.000000,243.500000 476.000000,243.750000 
	C461.844238,243.897766 447.688477,243.795547 433.333740,243.314667 
z"/>
<path fill="#00548E" opacity="1.000000" stroke="none" 
	d="
M105.067169,243.788483 
	C104.609009,242.169022 104.150864,240.549561 103.619957,238.672913 
	C105.767975,238.175400 107.286880,237.823608 109.075699,237.409302 
	C106.052704,233.462509 103.292641,229.852585 100.525620,226.247986 
	C96.835747,221.441208 93.072304,216.687897 89.521759,211.780457 
	C88.995453,211.053024 88.990479,209.076843 89.548134,208.579239 
	C92.980118,205.516968 96.738708,202.822754 100.200150,199.790894 
	C103.235550,197.132217 106.023682,194.191223 109.821938,190.499237 
	C106.374931,190.168777 104.042526,189.945175 101.312668,189.683472 
	C101.217575,188.005020 101.127617,186.417343 101.013634,184.405670 
	C116.910492,184.405670 132.487045,184.405670 148.835373,184.405670 
	C148.835373,201.986816 148.835373,219.678253 148.835373,237.677872 
	C154.167526,237.677872 158.732956,237.677872 163.649994,237.677872 
	C163.649994,207.559952 163.649994,177.666595 163.649994,147.314514 
	C160.504608,147.111618 157.434555,146.913559 154.364502,146.715515 
	C154.151367,146.272842 153.938248,145.830170 153.725113,145.387482 
	C154.933914,144.599747 156.120941,143.172897 157.355133,143.130859 
	C163.979752,142.905182 170.616119,143.024246 177.827057,143.024246 
	C177.827057,174.709473 177.827057,205.939407 177.827057,237.581848 
	C183.632462,237.581848 188.867264,237.581848 194.556931,237.581848 
	C194.556931,207.632706 194.556931,177.620743 194.556931,146.984070 
	C191.930008,146.984070 189.461517,147.160156 187.039734,146.900513 
	C186.019882,146.791183 185.098648,145.762024 184.132584,145.151001 
	C184.997330,144.442291 185.848145,143.139389 186.728989,143.118744 
	C193.868301,142.951569 201.013245,143.024872 208.739227,143.024872 
	C208.739227,174.617432 208.739227,205.845795 208.739227,237.534607 
	C212.665741,237.534607 216.011169,237.534607 219.940720,237.534607 
	C219.940720,231.154587 219.940720,224.897858 219.940720,218.579010 
	C224.197281,217.406158 225.787384,218.457291 226.116241,222.611618 
	C226.669525,229.600861 234.249207,237.372025 240.855637,238.910950 
	C246.159882,240.146545 255.273148,234.261215 254.088226,228.354050 
	C253.147797,223.665817 250.128601,221.884766 242.531357,220.857788 
	C235.827667,219.951584 228.412186,219.230774 224.364288,212.667679 
	C221.669449,208.298370 218.784836,203.626144 221.749985,197.843491 
	C223.467957,194.493149 223.763687,190.386017 225.606781,187.133606 
	C228.608063,181.837387 242.341873,180.504898 246.437408,182.627411 
	C249.840118,184.390854 252.425262,187.223892 255.252274,182.210556 
	C255.420761,181.911774 256.763062,182.274902 257.985748,182.359558 
	C257.985748,188.341141 258.069153,194.153320 257.905457,199.958557 
	C257.877441,200.951553 256.793976,201.914810 256.198120,202.891815 
	C255.450150,202.079407 254.307831,201.387680 254.016449,200.435547 
	C251.636597,192.658768 245.340393,187.285446 238.687881,187.942688 
	C235.143402,188.292862 228.263046,192.520813 227.331390,195.899612 
	C227.067368,196.857193 228.083893,198.964539 228.985107,199.308701 
	C232.864532,200.790192 236.883621,201.954453 240.918289,202.970383 
	C248.509232,204.881760 257.224365,205.639618 260.032715,214.445145 
	C261.733398,219.777649 262.980377,226.495026 261.224213,231.454620 
	C256.188538,245.675919 245.691254,246.390030 235.207092,243.954559 
	C234.455246,243.779922 233.652481,243.476959 233.065384,242.998199 
	C229.756775,240.300247 226.654129,238.498230 223.524261,243.385223 
	C223.081497,244.076523 221.034439,243.740356 218.949188,243.685791 
	C216.688187,243.329117 215.208008,243.025513 213.727600,243.024353 
	C179.301605,242.997360 144.875565,242.991348 110.449615,243.036316 
	C108.655136,243.038651 106.861298,243.526611 105.067169,243.788483 
M127.008194,234.550705 
	C128.933746,237.206985 131.073746,239.236893 134.649994,237.351395 
	C134.649994,221.618805 134.649994,206.083084 134.649994,190.278595 
	C126.980621,190.091583 119.287979,187.816589 114.059784,195.872360 
	C112.510124,198.260132 110.180710,200.291550 107.846428,201.987915 
	C103.552826,205.108185 105.078560,207.803879 107.870209,210.783218 
	C109.709763,212.746475 111.397499,214.858810 113.070694,216.969803 
	C117.562569,222.637054 122.010078,228.339462 127.008194,234.550705 
z"/>
<path fill="#00548E" opacity="1.000000" stroke="none" 
	d="
M50.415062,234.527802 
	C61.049030,226.751907 60.122639,209.660385 50.988968,205.191742 
	C47.742950,203.603607 44.271503,202.482620 40.981358,200.977066 
	C32.796326,197.231644 23.092379,197.945450 15.776611,191.235535 
	C9.208189,185.211044 5.272925,173.195862 8.583086,165.309708 
	C9.492546,163.142990 9.642044,160.649689 10.601322,158.513260 
	C12.087660,155.203049 13.313803,151.355515 15.842567,149.035248 
	C19.379747,145.789688 23.764736,142.284470 28.236435,141.520294 
	C34.835640,140.392548 42.289757,139.093552 48.394325,143.524933 
	C52.004105,146.145309 54.479546,146.558533 57.365768,142.908630 
	C58.191166,141.864822 59.820385,141.456665 61.732338,140.395569 
	C61.732338,150.034882 61.732338,158.634232 61.732338,167.644501 
	C60.006912,167.764008 58.437370,167.872726 56.414326,168.012848 
	C56.230125,161.003067 53.030972,155.831284 48.263103,151.252945 
	C43.931934,147.093948 34.157196,145.983292 28.502876,148.309357 
	C22.077881,150.952438 18.212349,154.879166 18.034132,161.866043 
	C17.835304,169.660965 23.591139,175.427628 31.283688,177.115524 
	C41.279354,179.308807 51.593704,181.325363 59.918884,187.773087 
	C62.675892,189.908325 65.357353,193.745331 65.695496,197.047760 
	C66.299995,202.951538 70.105247,208.063705 67.742287,215.030258 
	C65.881035,220.517654 64.856544,226.324631 62.122677,231.687912 
	C58.637650,238.524826 52.585190,241.937485 45.892643,243.857178 
	C34.948135,246.996521 24.815592,244.460190 15.884147,236.665527 
	C14.486667,238.808075 13.544762,240.672562 12.191689,242.164078 
	C11.418284,243.016632 9.961658,243.662491 8.839516,243.623718 
	C8.211622,243.602036 7.166163,242.018692 7.113413,241.093170 
	C6.539295,231.020065 6.124537,220.937881 5.646303,210.416641 
	C7.926694,210.247589 9.486609,210.131943 11.620544,209.973755 
	C12.487062,223.010635 18.461521,232.856049 30.354364,237.677078 
	C36.907177,240.333420 44.167519,239.960770 50.415062,234.527802 
z"/>
<path fill="#00548E" opacity="1.000000" stroke="none" 
	d="
M381.873169,237.202438 
	C392.497528,231.216644 396.906982,218.210281 389.631989,208.919998 
	C386.794983,205.297104 381.737793,202.939148 377.229279,201.213699 
	C371.006744,198.832230 364.214020,197.973526 357.907379,195.770309 
	C350.255920,193.097305 342.923035,186.752136 343.005096,176.822098 
	C343.064331,169.655533 342.544525,162.534424 345.891968,155.662781 
	C348.735443,149.825714 352.797913,145.387421 358.638367,143.255280 
	C362.930573,141.688354 367.869263,140.838501 372.389709,141.218307 
	C377.989899,141.688843 383.455566,143.759979 388.738678,145.079544 
	C390.834259,143.585098 393.184967,141.908722 396.675781,139.419296 
	C396.675781,149.965485 396.675781,158.559113 396.675781,167.198761 
	C392.926971,169.808929 391.773834,166.230209 390.475952,164.268784 
	C389.109070,162.203110 388.548676,159.606689 387.616882,157.249680 
	C385.492889,151.876755 378.613312,147.761658 372.987732,146.858536 
	C364.377838,145.476318 358.882263,150.225235 353.531403,155.426315 
	C351.063782,157.824844 351.690643,165.932755 354.054108,168.963989 
	C357.337799,173.175415 361.594666,175.592316 366.787323,177.076782 
	C375.029114,179.432938 383.514130,181.625076 391.059937,185.510696 
	C397.047424,188.593857 401.595093,194.474030 401.842255,201.860901 
	C402.073822,208.780960 402.509949,216.034470 400.808838,222.611755 
	C396.583069,238.950684 384.878082,246.698151 367.706299,244.702240 
	C361.208771,243.947037 355.312286,241.250137 350.621826,236.119339 
	C349.124023,238.582001 347.658020,240.992386 345.984070,243.744690 
	C344.839233,243.744690 343.234375,243.744690 341.315125,243.744690 
	C341.315125,232.607574 341.315125,221.693893 341.315125,210.346909 
	C342.983643,210.238571 344.551727,210.136749 345.642334,210.065948 
	C347.196228,215.222092 347.694092,220.535278 350.237457,224.553833 
	C355.591400,233.013153 362.644226,239.812378 373.914459,238.950653 
	C376.519745,238.751450 379.084808,238.026138 381.873169,237.202438 
z"/>
<path fill="#00548E" opacity="1.000000" stroke="none" 
	d="
M284.839813,214.940369 
	C285.643280,219.488785 284.674072,223.937546 287.445801,228.632950 
	C295.761871,242.720551 316.649536,241.551743 324.766327,229.091721 
	C326.525269,226.391586 327.819916,222.832016 327.852478,219.653183 
	C328.092896,196.178391 327.961212,172.699753 327.929749,149.222351 
	C327.929108,148.746628 327.725525,148.271164 327.431396,146.986633 
	C324.821167,146.986633 322.045319,147.182419 319.321289,146.891983 
	C318.203735,146.772842 317.198029,145.604553 316.141449,144.913513 
	C317.089111,144.281586 318.026306,143.120407 318.986023,143.101486 
	C326.642456,142.950562 334.304382,142.951065 341.961029,143.095947 
	C342.940063,143.114471 343.898376,144.230789 344.866272,144.838547 
	C343.839294,145.554611 342.877960,146.732803 341.771576,146.890076 
	C339.504669,147.212296 337.159882,146.986740 334.001434,146.986740 
	C334.001434,149.284317 334.001495,151.202881 334.001434,153.121429 
	C334.000610,175.267242 334.246704,197.417023 333.889160,219.557083 
	C333.723755,229.797455 328.688080,238.006897 319.063080,241.847443 
	C304.095276,247.819809 289.416077,245.954895 276.547974,236.295990 
	C271.981812,232.868591 269.873749,226.981979 268.865051,220.769348 
	C264.934937,196.563400 268.315765,172.195633 266.590515,146.983841 
	C264.149231,146.983841 261.565674,147.154709 259.024872,146.899536 
	C258.011993,146.797821 257.093628,145.754593 256.132233,145.139969 
	C256.999878,144.434845 257.860809,143.125412 258.736176,143.115677 
	C270.889740,142.980423 283.045746,142.979645 295.199341,143.112076 
	C296.095398,143.121826 296.977631,144.405045 297.866272,145.096222 
	C296.922028,145.725616 296.016113,146.815674 295.026276,146.898132 
	C292.049072,147.146057 289.039185,147.001404 285.379578,147.378113 
	C284.480682,149.210739 284.041931,150.674667 284.038422,152.139633 
	C283.992126,171.448349 283.987183,190.757278 284.042908,210.065933 
	C284.047607,211.691498 284.562134,213.315598 284.839813,214.940369 
z"/>
<path fill="#00548E" opacity="1.000000" stroke="none" 
	d="
M65.135262,242.933990 
	C65.135262,241.480255 65.135262,240.026520 65.135262,238.326263 
	C68.109978,238.102615 70.710487,237.907104 73.642792,237.686646 
	C73.642792,207.593048 73.642792,177.687958 73.642792,147.245468 
	C71.639046,147.154861 69.664803,147.279709 67.796028,146.893799 
	C66.812454,146.690674 66.013214,145.594940 65.130730,144.902267 
	C65.911156,144.280472 66.680153,143.136475 67.473793,143.119125 
	C74.093994,142.974274 80.718750,143.036880 87.921478,143.036880 
	C87.921478,174.807770 87.921478,206.045349 87.921478,235.881348 
	C90.757599,240.640701 98.322075,233.744965 97.422150,242.589844 
	C86.313553,242.987000 75.724403,242.960495 65.135262,242.933990 
z"/>
<path fill="#00548E" opacity="1.000000" stroke="none" 
	d="
M52.339798,273.369202 
	C54.871231,278.149597 57.218567,282.572296 59.424171,286.727966 
	C63.387108,281.457977 63.837524,274.009155 68.524834,268.917603 
	C69.048943,269.020050 69.573059,269.122467 70.097168,269.224915 
	C72.038177,278.769501 73.979179,288.314117 76.058510,298.538879 
	C72.985573,298.538879 71.299812,298.538879 69.241394,298.538879 
	C68.694443,294.280212 68.152916,290.063690 67.501900,284.994781 
	C65.020554,290.695587 62.781204,295.840424 60.541851,300.985229 
	C59.984715,301.153107 59.427582,301.320984 58.870449,301.488861 
	C56.664913,296.934204 54.459377,292.379517 52.233219,287.782257 
	C50.843399,291.635315 49.825233,295.216614 48.167812,298.472473 
	C47.794697,299.205444 45.190937,298.802856 42.915920,298.976227 
	C43.708076,293.659729 44.264938,288.934631 45.152103,284.272369 
	C45.897469,280.355286 46.925323,276.481506 48.044655,272.651855 
	C48.419556,271.369202 49.462387,270.281799 50.199909,269.105133 
	C50.851841,270.407257 51.503769,271.709381 52.339798,273.369202 
z"/>
<path fill="#00548E" opacity="1.000000" stroke="none" 
	d="
M285.120850,289.921997 
	C282.118866,300.107208 271.561340,302.531433 264.967010,300.625366 
	C257.465759,298.457153 251.831024,286.880829 254.153702,280.114380 
	C257.108795,271.505585 266.275177,266.614594 274.822693,269.468781 
	C282.781525,272.126434 288.431976,280.307648 285.120850,289.921997 
M265.788330,292.871429 
	C268.941254,295.861450 272.199188,293.963440 275.173431,292.750793 
	C279.399536,291.027771 280.759277,282.297760 277.633148,278.859467 
	C272.741638,273.479462 267.309723,274.447266 263.319519,278.398804 
	C259.020874,282.655762 259.746948,288.063904 265.788330,292.871429 
z"/>
<path fill="#00548E" opacity="1.000000" stroke="none" 
	d="
M379.956787,298.965576 
	C378.683105,298.025909 377.151306,297.103638 377.129883,296.147430 
	C376.940826,287.714691 377.020233,279.275970 377.020233,270.061401 
	C381.290344,270.061401 385.231659,269.709900 389.080658,270.155792 
	C393.311249,270.645935 396.579163,279.454163 393.245178,283.817810 
	C389.444550,288.792145 392.743622,291.446075 394.772491,294.862396 
	C395.403625,295.925079 396.248962,296.860535 397.518616,298.548889 
	C394.182556,298.548889 391.657776,298.548889 388.871063,298.548889 
	C387.484741,296.356415 385.881104,293.820282 384.243439,291.230286 
	C380.979980,292.981598 385.723450,298.444244 379.956787,298.965576 
M387.813232,280.963348 
	C387.813232,279.411407 387.813232,277.859467 387.813232,276.029510 
	C385.931488,276.163239 384.693024,276.251251 383.275269,276.351990 
	C383.275269,278.540375 383.275269,280.422607 383.275269,282.352753 
	C384.826843,282.088776 386.111755,281.870178 387.813232,280.963348 
z"/>
<path fill="#00548D" opacity="1.000000" stroke="none" 
	d="
M213.729553,269.004211 
	C216.338516,270.247772 218.664810,271.318207 220.583725,272.886932 
	C220.929092,273.169281 219.947556,275.951111 218.928665,276.750854 
	C218.100418,277.401001 215.983246,277.305389 214.991150,276.672668 
	C212.577087,275.132965 210.683075,274.514893 208.710175,277.967468 
	C211.678009,279.348053 214.446472,280.645081 217.222656,281.925323 
	C222.638351,284.422852 222.885025,291.414490 220.933578,295.577209 
	C219.153458,299.374451 212.606705,302.110016 208.426437,300.876282 
	C205.407867,299.985413 202.003754,294.040070 202.535522,290.583832 
	C207.320297,288.081879 208.886780,292.976288 211.858063,294.642151 
	C216.516891,290.749664 216.109589,288.549408 210.278442,286.021210 
	C206.876984,284.546478 203.620651,283.438904 203.869949,278.351746 
	C204.283463,269.913788 204.757980,269.069580 213.729553,269.004211 
z"/>
<path fill="#00548E" opacity="1.000000" stroke="none" 
	d="
M151.026398,280.513794 
	C151.200272,276.471771 149.682220,272.101837 154.260483,270.167419 
	C158.505188,268.373962 162.796921,268.092072 166.899094,271.228943 
	C168.830566,272.705933 169.819412,273.853363 167.997711,275.875488 
	C166.581238,277.447815 165.242950,279.345917 162.863022,276.834412 
	C160.802628,274.660156 158.699219,274.651672 156.618942,278.005432 
	C159.281052,279.451172 161.770981,280.743164 164.203232,282.135895 
	C170.825653,285.928070 171.239899,295.277130 164.536987,299.089203 
	C161.959183,300.555267 157.578873,301.309845 155.218643,300.082764 
	C152.221725,298.524689 148.334824,295.609314 151.046738,289.306549 
	C154.008759,291.021301 156.844177,292.662750 159.858505,294.407776 
	C164.215561,291.398682 164.254333,290.614197 159.704208,287.226746 
	C156.842545,285.096313 153.930222,283.033966 151.026398,280.513794 
z"/>
<path fill="#00548E" opacity="1.000000" stroke="none" 
	d="
M336.001343,278.070709 
	C336.001343,275.294373 336.001343,272.995789 336.001343,270.623291 
	C340.589020,269.209595 342.190491,270.736938 342.039154,274.993866 
	C341.862061,279.976227 342.022827,284.969849 341.990021,289.958282 
	C341.956299,295.082916 338.467285,299.112579 333.490601,300.846588 
	C329.878387,302.105225 322.651917,299.168121 320.591736,295.882141 
	C320.261963,295.356079 320.060913,294.654358 320.058105,294.032684 
	C320.022766,286.248871 320.034943,278.464874 320.034943,270.661865 
	C323.457733,269.492340 325.172760,270.023865 325.021851,273.682098 
	C324.891754,276.836121 324.997650,279.999908 325.002350,283.159393 
	C325.004059,284.323364 324.856689,285.514404 325.050629,286.646271 
	C325.671570,290.270203 326.517670,294.890808 330.739166,294.489014 
	C332.725403,294.299988 334.771545,289.511627 335.829315,286.472809 
	C336.655579,284.098999 335.998993,281.209045 336.001343,278.070709 
z"/>
<path fill="#00548E" opacity="1.000000" stroke="none" 
	d="
M146.913467,161.128418 
	C142.222626,163.290482 137.974991,164.549500 133.925705,160.089935 
	C130.160172,155.942917 132.189545,151.633194 133.332047,147.642685 
	C133.717255,146.297302 137.190277,145.491409 139.372849,145.080505 
	C143.317398,144.337830 146.565140,145.372604 148.973831,149.146469 
	C151.957245,153.820786 150.609344,157.372635 146.913467,161.128418 
z"/>
<path fill="#00548E" opacity="1.000000" stroke="none" 
	d="
M434.850525,271.521729 
	C434.934021,280.761505 434.934021,289.551361 434.934021,298.705322 
	C432.902496,298.794495 431.323669,298.863770 429.364075,298.949768 
	C429.364075,289.355927 429.364075,280.118011 429.364075,269.884979 
	C431.328644,270.316528 433.047852,270.694214 434.850525,271.521729 
z"/>
<path fill="#00548E" opacity="1.000000" stroke="none" 
	d="
M108.999451,286.979980 
	C108.999451,281.216644 108.999451,275.948059 108.999451,270.564270 
	C113.062737,269.465698 115.099579,270.189575 115.029915,274.494934 
	C114.901787,282.413452 114.993355,290.335571 114.993355,298.631470 
	C112.987366,298.765045 111.418228,298.869537 108.999451,299.030640 
	C108.999451,294.946075 108.999451,291.210419 108.999451,286.979980 
z"/>
<path fill="#006080" opacity="1.000000" stroke="none" 
	d="
M105.525597,243.862183 
	C106.861298,243.526611 108.655136,243.038651 110.449615,243.036316 
	C144.875565,242.991348 179.301605,242.997360 213.727600,243.024353 
	C215.208008,243.025513 216.688187,243.329117 218.543518,243.640808 
	C196.433090,243.859863 173.947662,243.954941 151.462112,243.991241 
	C136.302826,244.015732 121.143394,243.957245 105.525597,243.862183 
z"/>
<path fill="#DF2020" opacity="1.000000" stroke="none" 
	d="
M459.551605,38.083515 
	C458.227264,38.424767 456.435730,38.953663 454.642700,38.958847 
	C434.312897,39.017609 413.982788,39.012165 393.652893,38.966263 
	C392.017792,38.962574 390.383698,38.532967 388.397980,38.087929 
	C411.725800,37.925690 435.404785,37.976807 459.551605,38.083515 
z"/>
<path fill="#006080" opacity="1.000000" stroke="none" 
	d="
M284.895691,214.479492 
	C284.562134,213.315598 284.047607,211.691498 284.042908,210.065933 
	C283.987183,190.757278 283.992126,171.448349 284.038422,152.139633 
	C284.041931,150.674667 284.480682,149.210739 284.924255,147.390503 
	C285.071503,169.362640 285.011536,191.690643 284.895691,214.479492 
z"/>
<path fill="#DF2020" opacity="1.000000" stroke="none" 
	d="
M328.529358,38.101410 
	C322.713684,38.445950 316.435730,38.892181 310.154175,38.950253 
	C304.356262,39.003845 298.554504,38.641026 292.374878,38.301022 
	C304.018677,38.104889 316.042084,38.069351 328.529358,38.101410 
z"/>
<path fill="#006180" opacity="1.000000" stroke="none" 
	d="
M65.333466,243.313202 
	C75.724403,242.960495 86.313553,242.987000 97.359039,243.017365 
	C96.115913,243.346466 94.416382,243.950867 92.717010,243.950378 
	C83.655205,243.947815 74.593445,243.793945 65.333466,243.313202 
z"/>
</svg>